<svg id="visual" viewBox="0 0 450 900" width="450" height="900" xmlns="http://www.w3.org/2000/svg" xmlns:xlink="http://www.w3.org/1999/xlink" version="1.1"><rect x="0" y="0" width="450" height="900" fill="#191825"></rect><path d="M331 900L324.2 878.5C317.3 857 303.7 814 301.8 771.2C300 728.3 310 685.7 319 642.8C328 600 336 557 333.3 514.2C330.7 471.3 317.3 428.7 309.2 385.8C301 343 298 300 303 257.2C308 214.3 321 171.7 322.8 128.8C324.7 86 315.3 43 310.7 21.5L306 0L450 0L450 21.5C450 43 450 86 450 128.8C450 171.7 450 214.3 450 257.2C450 300 450 343 450 385.8C450 428.7 450 471.3 450 514.2C450 557 450 600 450 642.8C450 685.7 450 728.3 450 771.2C450 814 450 857 450 878.5L450 900Z" fill="#00FF53" stroke-linecap="round" stroke-linejoin="miter"></path></svg>