<svg id="visual" viewBox="0 0 540 960" width="540" height="960" xmlns="http://www.w3.org/2000/svg" xmlns:xlink="http://www.w3.org/1999/xlink" version="1.1"><rect x="0" y="0" width="540" height="960" fill="#191825"></rect><path d="M388 960L397.5 940C407 920 426 880 437.2 840C448.3 800 451.7 760 441.8 720C432 680 409 640 390.2 600C371.3 560 356.7 520 352 480C347.3 440 352.7 400 359.8 360C367 320 376 280 393.2 240C410.3 200 435.7 160 439.3 120C443 80 425 40 416 20L407 0L540 0L540 20C540 40 540 80 540 120C540 160 540 200 540 240C540 280 540 320 540 360C540 400 540 440 540 480C540 520 540 560 540 600C540 640 540 680 540 720C540 760 540 800 540 840C540 880 540 920 540 940L540 960Z" fill="#00FD9A" stroke-linecap="round" stroke-linejoin="miter"></path></svg>