<svg id="visual" viewBox="0 0 675 900" width="675" height="900" xmlns="http://www.w3.org/2000/svg" xmlns:xlink="http://www.w3.org/1999/xlink" version="1.1"><rect x="0" y="0" width="675" height="900" fill="#191825"></rect><path d="M496 900L485.7 878.5C475.3 857 454.7 814 451.8 771.2C449 728.3 464 685.7 477.5 642.8C491 600 503 557 499.2 514.2C495.3 471.3 475.7 428.7 463.7 385.8C451.7 343 447.3 300 454.8 257.2C462.3 214.3 481.7 171.7 484.2 128.8C486.7 86 472.3 43 465.2 21.5L458 0L675 0L675 21.5C675 43 675 86 675 128.8C675 171.7 675 214.3 675 257.2C675 300 675 343 675 385.8C675 428.7 675 471.3 675 514.2C675 557 675 600 675 642.8C675 685.7 675 728.3 675 771.2C675 814 675 857 675 878.5L675 900Z" fill="#00FF53" stroke-linecap="round" stroke-linejoin="miter"></path></svg>