<svg id="visual" viewBox="0 0 600 900" width="600" height="900" xmlns="http://www.w3.org/2000/svg" xmlns:xlink="http://www.w3.org/1999/xlink" version="1.1"><rect x="0" y="0" width="600" height="900" fill="#191825"></rect><path d="M460 900L460.7 881.3C461.3 862.7 462.7 825.3 453.7 787.8C444.7 750.3 425.3 712.7 429.8 675.2C434.3 637.7 462.7 600.3 463.3 562.8C464 525.3 437 487.7 426.3 450.2C415.7 412.7 421.3 375.3 434.8 337.8C448.3 300.3 469.7 262.7 483.5 225.2C497.3 187.7 503.7 150.3 490 112.8C476.3 75.3 442.7 37.7 425.8 18.8L409 0L600 0L600 18.8C600 37.7 600 75.3 600 112.8C600 150.3 600 187.7 600 225.2C600 262.7 600 300.3 600 337.8C600 375.3 600 412.7 600 450.2C600 487.7 600 525.3 600 562.8C600 600.3 600 637.7 600 675.2C600 712.7 600 750.3 600 787.8C600 825.3 600 862.7 600 881.3L600 900Z" fill="#00FF53" stroke-linecap="round" stroke-linejoin="miter"></path></svg>